<svg width="219" height="101" viewBox="0 0 219 101" fill="none" xmlns="http://www.w3.org/2000/svg">
<path d="M107 0L115.981 27.6393H145.042L121.531 44.7214L130.511 72.3607L107 55.2786L83.4886 72.3607L92.4691 44.7214L68.9577 27.6393H98.0194L107 0Z" fill="#EFB810"/>
<path d="M179 21L187.981 48.6393H217.042L193.531 65.7214L202.511 93.3607L179 76.2786L155.489 93.3607L164.469 65.7214L140.958 48.6393H170.019L179 21Z" fill="#EFB810"/>
<path d="M40 21L48.9806 48.6393H78.0423L54.5309 65.7214L63.5114 93.3607L40 76.2786L16.4886 93.3607L25.4691 65.7214L1.95774 48.6393H31.0194L40 21Z" fill="#EFB810"/>
</svg>
